<mxfile host="app.diagrams.net" modified="2022-08-13T06:03:57.411Z" agent="5.0 (Windows NT 10.0; Win64; x64) AppleWebKit/537.36 (KHTML, like Gecko) Chrome/98.0.4758.102 Safari/537.36" etag="1SmhURJc9ebmUQvaGC_B" version="20.2.3" type="github">
  <diagram id="qQrw84PS0TK_qkx8okuS" name="第 1 页">
    <mxGraphModel dx="1422" dy="881" grid="1" gridSize="10" guides="1" tooltips="1" connect="1" arrows="1" fold="1" page="1" pageScale="1" pageWidth="3300" pageHeight="2339" math="0" shadow="0">
      <root>
        <mxCell id="0" />
        <mxCell id="1" parent="0" />
        <mxCell id="kdKNhfX-OJygKy3O_SWa-2" value="&lt;font style=&quot;font-size: 16px;&quot;&gt;页面CURD&lt;/font&gt;" style="rounded=1;whiteSpace=wrap;html=1;fontSize=16;" vertex="1" parent="1">
          <mxGeometry x="220" y="130" width="120" height="60" as="geometry" />
        </mxCell>
        <mxCell id="kdKNhfX-OJygKy3O_SWa-3" value="&lt;font style=&quot;font-size: 16px;&quot;&gt;nacos-client&lt;/font&gt;" style="rounded=1;whiteSpace=wrap;html=1;fontSize=16;" vertex="1" parent="1">
          <mxGeometry x="425" y="130" width="120" height="60" as="geometry" />
        </mxCell>
        <mxCell id="kdKNhfX-OJygKy3O_SWa-4" value="&lt;font style=&quot;font-size: 16px;&quot;&gt;nacos-config&lt;/font&gt;" style="rounded=1;whiteSpace=wrap;html=1;fontSize=16;" vertex="1" parent="1">
          <mxGeometry x="680" y="130" width="120" height="60" as="geometry" />
        </mxCell>
        <mxCell id="kdKNhfX-OJygKy3O_SWa-41" value="" style="edgeStyle=orthogonalEdgeStyle;rounded=0;orthogonalLoop=1;jettySize=auto;html=1;fontSize=16;fontColor=#000000;" edge="1" parent="1" source="kdKNhfX-OJygKy3O_SWa-5" target="kdKNhfX-OJygKy3O_SWa-35">
          <mxGeometry relative="1" as="geometry" />
        </mxCell>
        <mxCell id="kdKNhfX-OJygKy3O_SWa-5" value="&lt;font style=&quot;font-size: 16px;&quot;&gt;AbstractApplicationContext.publishEvent&lt;/font&gt;" style="rounded=1;whiteSpace=wrap;html=1;fontSize=16;" vertex="1" parent="1">
          <mxGeometry x="940" y="250" width="305" height="60" as="geometry" />
        </mxCell>
        <mxCell id="kdKNhfX-OJygKy3O_SWa-32" style="edgeStyle=orthogonalEdgeStyle;rounded=0;orthogonalLoop=1;jettySize=auto;html=1;exitX=0.5;exitY=1;exitDx=0;exitDy=0;fontSize=16;fontColor=#000000;" edge="1" parent="1" source="kdKNhfX-OJygKy3O_SWa-7">
          <mxGeometry relative="1" as="geometry">
            <mxPoint x="485" y="410" as="targetPoint" />
          </mxGeometry>
        </mxCell>
        <mxCell id="kdKNhfX-OJygKy3O_SWa-7" value="" style="swimlane;startSize=0;fontSize=16;" vertex="1" parent="1">
          <mxGeometry x="375" y="240" width="220" height="80" as="geometry" />
        </mxCell>
        <mxCell id="kdKNhfX-OJygKy3O_SWa-21" value="ScheduledExecutorService&lt;br&gt;周期性执行(10毫秒)" style="text;align=center;verticalAlign=middle;resizable=0;points=[];autosize=1;strokeColor=none;fillColor=none;fontSize=16;html=1;" vertex="1" parent="kdKNhfX-OJygKy3O_SWa-7">
          <mxGeometry y="15" width="220" height="50" as="geometry" />
        </mxCell>
        <mxCell id="kdKNhfX-OJygKy3O_SWa-38" style="edgeStyle=orthogonalEdgeStyle;rounded=0;orthogonalLoop=1;jettySize=auto;html=1;exitX=1;exitY=0.5;exitDx=0;exitDy=0;entryX=0;entryY=0.5;entryDx=0;entryDy=0;fontSize=16;fontColor=#000000;" edge="1" parent="1" source="kdKNhfX-OJygKy3O_SWa-17" target="kdKNhfX-OJygKy3O_SWa-5">
          <mxGeometry relative="1" as="geometry" />
        </mxCell>
        <mxCell id="kdKNhfX-OJygKy3O_SWa-17" value="" style="swimlane;startSize=0;fontSize=16;" vertex="1" parent="1">
          <mxGeometry x="640" y="240" width="230" height="80" as="geometry" />
        </mxCell>
        <mxCell id="kdKNhfX-OJygKy3O_SWa-18" value="生成新的md5值，放在本地&lt;br&gt;发布刷新nacos配置事件" style="text;align=center;verticalAlign=middle;resizable=0;points=[];autosize=1;strokeColor=none;fillColor=none;fontSize=16;html=1;" vertex="1" parent="kdKNhfX-OJygKy3O_SWa-17">
          <mxGeometry x="-3" y="15" width="210" height="50" as="geometry" />
        </mxCell>
        <mxCell id="kdKNhfX-OJygKy3O_SWa-23" value="" style="group" vertex="1" connectable="0" parent="1">
          <mxGeometry x="370" y="410" width="230" height="80" as="geometry" />
        </mxCell>
        <mxCell id="kdKNhfX-OJygKy3O_SWa-24" value="" style="group" vertex="1" connectable="0" parent="kdKNhfX-OJygKy3O_SWa-23">
          <mxGeometry width="230" height="80" as="geometry" />
        </mxCell>
        <mxCell id="kdKNhfX-OJygKy3O_SWa-15" value="" style="rounded=0;whiteSpace=wrap;html=1;labelBackgroundColor=#FFFFFF;fontSize=16;fontColor=#000000;" vertex="1" parent="kdKNhfX-OJygKy3O_SWa-24">
          <mxGeometry width="220" height="80" as="geometry" />
        </mxCell>
        <mxCell id="kdKNhfX-OJygKy3O_SWa-22" value="判断缓存内的md5是否一致，&lt;br&gt;不一致则通知监听者" style="text;align=center;verticalAlign=middle;resizable=0;points=[];autosize=1;strokeColor=none;fillColor=none;fontSize=16;html=1;" vertex="1" parent="kdKNhfX-OJygKy3O_SWa-24">
          <mxGeometry y="15" width="230" height="50" as="geometry" />
        </mxCell>
        <mxCell id="kdKNhfX-OJygKy3O_SWa-28" style="edgeStyle=orthogonalEdgeStyle;rounded=0;orthogonalLoop=1;jettySize=auto;html=1;entryX=0.5;entryY=1;entryDx=0;entryDy=0;fontSize=16;fontColor=#000000;" edge="1" parent="1" target="kdKNhfX-OJygKy3O_SWa-17">
          <mxGeometry relative="1" as="geometry">
            <mxPoint x="590" y="460" as="sourcePoint" />
          </mxGeometry>
        </mxCell>
        <mxCell id="kdKNhfX-OJygKy3O_SWa-33" value="修改配置" style="rounded=0;whiteSpace=wrap;html=1;labelBackgroundColor=#FFFFFF;fontSize=16;fontColor=#000000;" vertex="1" parent="1">
          <mxGeometry x="220" y="250" width="120" height="60" as="geometry" />
        </mxCell>
        <mxCell id="kdKNhfX-OJygKy3O_SWa-44" style="edgeStyle=orthogonalEdgeStyle;rounded=0;orthogonalLoop=1;jettySize=auto;html=1;entryX=0.5;entryY=0;entryDx=0;entryDy=0;fontSize=16;fontColor=#000000;" edge="1" parent="1" source="kdKNhfX-OJygKy3O_SWa-35" target="kdKNhfX-OJygKy3O_SWa-43">
          <mxGeometry relative="1" as="geometry" />
        </mxCell>
        <mxCell id="kdKNhfX-OJygKy3O_SWa-35" value="SimpleApplicationEventMulticaster.multicastEvent" style="rounded=1;whiteSpace=wrap;html=1;labelBackgroundColor=#FFFFFF;fontSize=16;fontColor=#000000;" vertex="1" parent="1">
          <mxGeometry x="898.13" y="390" width="388.75" height="80" as="geometry" />
        </mxCell>
        <mxCell id="kdKNhfX-OJygKy3O_SWa-39" value="&lt;font style=&quot;font-size: 16px;&quot;&gt;spring-context&lt;/font&gt;" style="rounded=1;whiteSpace=wrap;html=1;fontSize=16;" vertex="1" parent="1">
          <mxGeometry x="1020" y="130" width="120" height="60" as="geometry" />
        </mxCell>
        <mxCell id="kdKNhfX-OJygKy3O_SWa-43" value="RefreshEventListener&lt;br&gt;refresh context" style="rounded=1;whiteSpace=wrap;html=1;labelBackgroundColor=#FFFFFF;fontSize=16;fontColor=#000000;" vertex="1" parent="1">
          <mxGeometry x="977.5" y="570" width="230" height="80" as="geometry" />
        </mxCell>
      </root>
    </mxGraphModel>
  </diagram>
</mxfile>
